<svg xmlns="http://www.w3.org/2000/svg" width="906.699" height="252.956" viewBox="0 0 906.699 252.956">
  <g id="Group_3" data-name="Group 3" transform="translate(-47.301 -37.044)">
    <g id="coconut" transform="translate(38.661 37.044)">
      <path id="Path_1" data-name="Path 1" d="M47.909,77.3,81.916,243.443a120.342,120.342,0,0,0,55.046,20L270.444,149.061q.146-2.99.149-6.016A121.049,121.049,0,0,0,47.909,77.3Z" transform="translate(-19.868 -11.132)" fill="#ffdd40"/>
      <path id="Path_2" data-name="Path 2" d="M245.764,68.895a90.408,90.408,0,0,1,21.052,17.05A290.407,290.407,0,0,1,294.27,17.828a4.672,4.672,0,0,0-6.951-5.962c-21.026,16.192-34.415,37.2-42.9,56.276C244.871,68.393,245.321,68.637,245.764,68.895Z" transform="translate(-119.294 -5.491)" fill="#4bc966"/>
      <path id="Path_3" data-name="Path 3" d="M266.816,118.7a279.788,279.788,0,0,1,10.667-32.691c-.078.013-.158.021-.234.039-15.042,3.522-17.9-5.5-18.445-9.274a3.671,3.671,0,0,0-.386-1.184,162.466,162.466,0,0,0-13.993,25.306c.447.251.9.494,1.34.753A90.415,90.415,0,0,1,266.816,118.7Z" transform="translate(-119.294 -38.243)" fill="#2fad4f"/>
      <path id="Path_4" data-name="Path 4" d="M369.175.571C327.993,18.565,300.1,50.438,282.795,76.9A91.655,91.655,0,0,1,301.372,102.7l1-.257a105.612,105.612,0,0,1,10.876-2.185c20.335-40.387,45.8-71.267,63.066-89.625,4.7-5-.854-12.807-7.144-10.059Z" transform="translate(-138.707)" fill="#62e87c"/>
      <path id="Path_5" data-name="Path 5" d="M333.026,112.027c-20.081,4.237-25.3-7.18-26.649-12.937A3.592,3.592,0,0,0,305,97.012a239.587,239.587,0,0,0-22.2,28.975,91.653,91.653,0,0,1,18.577,25.792l1-.257a105.588,105.588,0,0,1,10.876-2.185,366.27,366.27,0,0,1,21.619-37.2,3.589,3.589,0,0,0-1.847-.106Z" transform="translate(-138.708 -49.083)" fill="#4bc966"/>
      <path id="Path_6" data-name="Path 6" d="M410.4,106.372c-36.464,7.955-63.35,30.973-79.469,48.846a102.338,102.338,0,0,1,38.336-.964,293.056,293.056,0,0,1,44.871-39.521A4.672,4.672,0,0,0,410.4,106.372Z" transform="translate(-163.062 -53.757)" fill="#85f998"/>
      <path id="Path_7" data-name="Path 7" d="M380.252,159.255c-12.241.877-13.9-10.3-14.122-13.8a3.721,3.721,0,0,0-.183-.929,176.12,176.12,0,0,0-35.015,30.056,102.328,102.328,0,0,1,38.336-.964c4.517-4.9,9.033-9.431,13.461-13.626A3.64,3.64,0,0,0,380.252,159.255Z" transform="translate(-163.062 -73.123)" fill="#62e87c"/>
      <path id="Path_8" data-name="Path 8" d="M127.113,113.214a92.234,92.234,0,0,0-99.072,3.866A121.079,121.079,0,0,0,62.048,283.223a92.165,92.165,0,0,0,37.081-.013A88.767,88.767,0,0,1,84.27,247.5a36.441,36.441,0,0,1-2.69-13.877c.013-.3,1.786-30.836,40.251-60.025a117.182,117.182,0,0,1,41.975-20.574,91.794,91.794,0,0,0-36.692-39.806Z" transform="translate(0 -50.912)" fill="#a03c32"/>
      <path id="Path_9" data-name="Path 9" d="M8.64,199.673a120.921,120.921,0,0,0,53.408,100.4,92.165,92.165,0,0,0,37.081-.013A88.767,88.767,0,0,1,84.27,264.344a36.44,36.44,0,0,1-2.69-13.877c.012-.286,1.57-27.108,33.408-54.5h0c-14.246,5.21-15.733-5.7-15.733-5.7l-23.21-16.4c-6.286,1.038-6.8-4.538-6.8-4.538l-22.377-16.38c-22.284,0-18.83-19.02-18.83-19.02a120.476,120.476,0,0,0-19.4,65.745Z" transform="translate(0 -67.76)" fill="#912e29"/>
      <g id="Group_1" data-name="Group 1" transform="translate(41.996 63.386)">
        <path id="Path_10" data-name="Path 10" d="M147.721,203.651a14.214,14.214,0,1,0,19.253,5.791A14.21,14.21,0,0,0,147.721,203.651Z" transform="translate(-108.57 -165.562)" fill="#b74a44"/>
        <path id="Path_11" data-name="Path 11" d="M83.644,167.022a14.214,14.214,0,1,0,19.253,5.791A14.233,14.233,0,0,0,83.644,167.022Z" transform="translate(-76.154 -147.029)" fill="#b74a44"/>
        <path id="Path_12" data-name="Path 12" d="M152.56,130a14.214,14.214,0,1,0,19.253,5.791A14.234,14.234,0,0,0,152.56,130Z" transform="translate(-111.022 -128.296)" fill="#b74a44"/>
        <path id="Path_13" data-name="Path 13" d="M327.062,249.212a89.625,89.625,0,0,0-25.634-29.262c2.363,2.47,3.678,3.367,5.925,7.485,7.654,14.034,11.482,34.446-8.931,41.676s-5.528,19.987-32.745,34.446-52.745,31.063-78.035,24.061c-16.791-4.65-24.039-10.526-27.828-19.582q.417,2.337.96,4.675a89.445,89.445,0,0,0,32.806,50.88,122.382,122.382,0,0,0,12.589.649A121.045,121.045,0,0,0,327.062,249.212Z" transform="translate(-118.481 -174.668)" fill="#b74a44"/>
      </g>
      <path id="Path_14" data-name="Path 14" d="M259.942,403.255a4.924,4.924,0,0,0-2.248-5.367c-24.253,13.192-47.249,26.07-70.051,19.756-16.791-4.65-24.039-10.526-27.828-19.582q.417,2.337.96,4.675a89.445,89.445,0,0,0,32.806,50.88,122.382,122.382,0,0,0,12.589.649,120.472,120.472,0,0,0,69.09-21.652C257.008,426.567,258.136,410.938,259.942,403.255Z" transform="translate(-76.486 -201.309)" fill="#a03c32"/>
      <path id="Path_15" data-name="Path 15" d="M404.952,361.8a4.311,4.311,0,1,0-7.043,4.975c3.082,4.363,10.01,15.6,13.813,32.957q3.669-3.66,7.014-7.63A96.85,96.85,0,0,0,404.952,361.8Z" transform="translate(-196.549 -182.126)" fill="#a03c32"/>
      <g id="Group_2" data-name="Group 2" transform="translate(211.607 158.904)">
        <path id="Path_16" data-name="Path 16" d="M432.585,352.817a104.726,104.726,0,0,0-12.364-24.426,4.311,4.311,0,0,1,7.1-4.9,113.4,113.4,0,0,1,13.391,26.434,4.311,4.311,0,0,1-8.125,2.888Z" transform="translate(-419.458 -321.632)" fill="#a03c32"/>
      </g>
      <path id="Path_17" data-name="Path 17" d="M287.873,201.2s10.206,3.4,17.861,17.436,11.482,34.446-8.931,41.676-5.528,19.987-32.745,34.446-52.745,31.063-78.035,24.06-31.55-22-31.682-35.968c0,0,1.361-30.948,40.628-60.746,47.613-36.131,92.9-20.9,92.9-20.9Z" transform="translate(-73.717 -100.185)" fill="#f0f7fc"/>
      <path id="Path_18" data-name="Path 18" d="M254.511,315.275c-6.094-2.84-5.027-8.8-3.863-12.074a4.941,4.941,0,0,0-.656-4.558l-34.08-47a4.9,4.9,0,0,0-3.541-2.02c-10.081-.844-10.036-7.77-9.017-12.031a4.793,4.793,0,0,0-.093-2.553c-2.75,1.77-5.517,3.695-8.292,5.8-39.267,29.8-40.628,60.746-40.628,60.746.131,13.967,6.392,28.965,31.682,35.968,23.012,6.372,46.222-6.8,70.722-20.12A4.8,4.8,0,0,0,254.511,315.275Z" transform="translate(-73.717 -118.915)" fill="#d0e8fe"/>
      <path id="Path_19" data-name="Path 19" d="M297.255,282.451c5.62-9.053,15.45-18.778,11.069-31.557a45.065,45.065,0,0,0-2.883-6.644c-3.953-7.393-15.26-8.107-23.931-7.044-16.39,2.009-41.683,8.87-56.969,23.362-21.85,20.716-29.449,42.633-16.575,52.588C224.564,325.991,281.587,307.689,297.255,282.451Z" transform="translate(-97.671 -119.815)" fill="#a9d8fc"/>
      <path id="Path_20" data-name="Path 20" d="M342.517,244.25c-3.953-7.393-15.26-8.107-23.931-7.044-12.207,1.5-29.349,5.687-43.62,13.714.812-.131,60.189-9.56,36.993,51.32,9.636-5.6,17.78-12.393,22.371-19.789,5.62-9.053,15.45-18.778,11.069-31.557A45.115,45.115,0,0,0,342.517,244.25Z" transform="translate(-134.746 -119.815)" fill="#8ecefb"/>
    </g>
    <text id="小ocos小ore" transform="translate(328 195)" fill="#2fad4f" font-size="120" font-family="Raleway-Bold, Raleway" font-weight="700"><tspan x="0" y="0">小ocos小ore</tspan></text>
    <text id="by_tgxed" data-name="by tgxed" transform="translate(788 238)" fill="#2fad4f" font-size="40" font-family="Raleway-Bold, Raleway" font-weight="700"><tspan x="0" y="0">by tgxed</tspan></text>
  </g>
</svg>
